<?xml version="1.0" encoding="utf-8"?>
<!-- Generator: Adobe Illustrator 24.2.3, SVG Export Plug-In . SVG Version: 6.00 Build 0)  -->
<svg version="1.1" id="Layer_1" xmlns="http://www.w3.org/2000/svg" xmlns:xlink="http://www.w3.org/1999/xlink" x="0px" y="0px"
	 viewBox="0 0 576 512" style="enable-background:new 0 0 576 512;" xml:space="preserve">
<style type="text/css">
	.st0{fill:#7D7D7D;}
</style>
<path class="st0" d="M573.6,243.7c-14.9-35.7-46.2-87.7-93-131.1C433.5,68.8,368.8,32,288,32S142.5,68.8,95.4,112.6
	C48.6,156,17.3,208,2.5,243.7c-3.3,7.9-3.3,16.7,0,24.6C17.3,304,48.6,356,95.4,399.4C142.5,443.2,207.2,480,288,480
	s145.5-36.8,192.6-80.6c46.8-43.5,78.1-95.4,93-131.1C576.9,260.4,576.9,251.6,573.6,243.7z M288,400c-79.5,0-144-64.5-144-144
	s64.5-144,144-144s144,64.5,144,144S367.5,400,288,400z"/>
</svg>
