<svg width="16" height="16" viewBox="0 0 16 16" fill="none" xmlns="http://www.w3.org/2000/svg">
<path d="M11.3465 0.586576L9.83235 2.10072L13.8993 6.16765L15.4134 4.6535C16.1955 3.8714 16.1955 2.6044 15.4134 1.82229L14.1808 0.586576C13.3987 -0.195525 12.1317 -0.195525 11.3496 0.586576H11.3465ZM9.12533 2.80774L1.83303 10.1032C1.50767 10.4285 1.26991 10.8321 1.13852 11.2732L0.0310672 15.0367C-0.0471429 15.3026 0.0248104 15.5873 0.218771 15.7812C0.412732 15.9752 0.697417 16.0471 0.960203 15.9721L4.72367 14.8646C5.16478 14.7332 5.56834 14.4955 5.89369 14.1701L13.1923 6.87466L9.12533 2.80774Z" fill="#303030"/>
</svg>
