<svg xmlns="http://www.w3.org/2000/svg" viewBox="0 0 668.75 91.93"><defs><style>.cls-1{fill:#d569b0;}</style></defs><g id="Layer_2" data-name="Layer 2"><g id="Layer_1-2" data-name="Layer 1"><path class="cls-1" d="M178.25,66.42c1.15.25,1.66.9,1.65,1.54s-.64,1.15-1.66,1.14c-1.67,0-6-.27-12.29-.29s-10.63.23-12.42.22c-.89,0-1.53-.52-1.53-1.16s.52-1.28,1.67-1.53c1.79-.63,2.56-1.14,2.57-2.93l.1-35.08a3.28,3.28,0,0,0-2.55-2.95c-1.15-.26-1.66-.9-1.66-1.54s.64-1.15,1.54-1.28a53.63,53.63,0,0,0,11.53-3c5.38-1.91,7.56-3.05,9.23-3.05,1.4,0,1.4,1.93,1.37,9.86v3.2c6.05-8.43,10.67-14.3,17.46-14.28,6,0,10.09,5.15,10.07,11.42,0,7.3-5.66,10.22-8.6,10.21-1.41,0-2.43-.9-5.37-4.49-2-2.7-3.06-3.59-5.1-3.6s-5.13,2.29-8.47,5.61l-.09,29.05C175.69,65.26,176.33,65.77,178.25,66.42Z"/><path class="cls-1" d="M229.33,63.62c0,1.8.63,2.31,2.42,2.95,1.28.26,1.79.91,1.79,1.55s-.65,1.15-1.67,1.14c-1.66,0-6-.27-12.42-.29s-10.62.22-12.29.22c-1,0-1.53-.52-1.53-1.16s.39-1.28,1.67-1.53c1.79-.63,2.56-1.14,2.57-2.93L210,13.13c0-1.79-.76-2.31-2.55-2.82-1.28-.39-1.66-.9-1.66-1.67s.51-1.15,1.54-1.28a49.58,49.58,0,0,0,12.3-3.16C225,1.91,226.57,0,228,0s1.53,1.28,1.53,3Z"/><path class="cls-1" d="M269.29,10.49c-1.15-.39-1.53-.9-1.53-1.67s.52-1.15,1.54-1.27a50,50,0,0,0,12.3-3.17C287,2.1,288.52.18,289.93.18s1.41,1.29,1.4,2.95l-.18,60.68c0,1.79.76,2.18,2.55,2.69,1.28.39,1.66,1,1.66,1.67s-.51,1.15-1.54,1.15c-1.66,0-4.61-.27-12.41-.17-6.92.11-9.74,1.26-9.73-1.3l0-5.38c-2.45,4-6.81,7.79-12.44,7.77-10.63,0-20.07-10.17-20-27.84s9.56-27,20.18-26.95c5.63,0,10,4.13,12.39,8.87l0-11A3,3,0,0,0,269.29,10.49ZM258.7,42.21c0,13.18,3.4,18.82,7,18.83,3.2,0,5.78-5,6.07-16.88V42.24c0-13-2.38-17.67-6-17.68S258.74,29.15,258.7,42.21Z"/><path class="cls-1" d="M340.15,69.33c-6.27,0-11,.22-12.8.22-.89,0-1.53-.52-1.53-1.16s.52-1.28,1.67-1.66c1.79-.38,2.56-1,2.57-2.81l.16-56.32c0-1.79-.76-2.43-2.55-2.95-1.15-.26-1.66-.9-1.66-1.54S326.66,2,327.55,2c1.8,0,6.53.28,12.8.29l14,0c17,.05,27.11,7.63,27.08,18,0,6.4-3.88,11.51-10.67,14.69,12.66,2.85,19,9.14,19,16.44,0,10.11-8.75,18-35.63,17.94Zm10.22-36.07h3.84c6-.23,10.9-5,10.92-13S360.05,7.05,353.91,7h-.26c-2.3,0-3.2,1-3.21,4Zm0,4.74-.07,22.65c0,3,.89,3.85,3.19,3.85H355c7.93,0,14.47-4.31,14.5-13.14S363,38,355.1,38Z"/><path class="cls-1" d="M483.73,39V37.88c0-12.54-1.49-17.41-5.71-17.42-3.84,0-5.39,3.69-5.4,7.79,0,6.53-3.62,9.85-8.48,9.83-6.14,0-9.07-4.89-7.65-10.13,1.94-7,11.68-11.87,21.28-11.85,15.49,0,25.33,7.12,25.29,21.71L503,61.88c0,3.58.12,4.73,2.29,5.12,1.54.39,2.05.78,2.05,1.29,0,.77-.65,1.28-1.67,1.53a23.12,23.12,0,0,1-5.25.5c-7.17,0-14.59-3.12-16.74-10.8-2.45,6.77-8.1,11.36-15.39,11.34-10.88,0-16.11-6.7-16.09-14C452.22,46.49,465.3,39.11,483.73,39Zm0,2.95c-7.81.36-12,5-12.06,11.23,0,3.71,2.41,7.3,5.86,7.31s6-5.1,6.05-8.68v-6c0-.26,0-.39.13-.51Z"/><path class="cls-1" d="M543.68,25.13c-1.28-.38-1.66-.9-1.66-1.67s.51-1.27,1.54-1.27a41.44,41.44,0,0,0,12.29-1.76c5.51-1.52,6.54-2.79,8.33-2.79,1.41,0,1.41,1.29,1.4,2.95l-.12,41.47c0,3.59.11,4.74,2.41,5.13,1.54.39,1.92.77,1.92,1.29,0,.76-.64,1.28-1.54,1.53a23.27,23.27,0,0,1-5.25.49c-7,0-14.58-3.11-16.61-10.67-2.19,5.75-7.84,11.24-15.52,11.22-10.88,0-16.11-8-16.08-15.28l.08-27.91A3,3,0,0,0,512.32,25c-1.15-.39-1.67-.9-1.66-1.67a1.47,1.47,0,0,1,1.66-1.27,41.84,41.84,0,0,0,12.3-1.76c5.51-1.52,6.54-2.8,8.33-2.79,1.28,0,1.4,1.28,1.4,2.95l-.1,34.17c0,3.72,2.28,6,5.87,6a5.61,5.61,0,0,0,5.9-4.46L546.1,28A3,3,0,0,0,543.68,25.13Z"/><path class="cls-1" d="M597.19,22.09l-.09,31.62c0,4.35,1.77,6.28,4.46,6.29a15.21,15.21,0,0,0,4.35-.5c1-.26,2.17.77,1.15,2.18-3.86,4.85-7.32,8.42-15,8.4-10.62,0-14.44-8-14.41-15.4L577.73,22H575.3c-1.28,0-1.66-.52-1.66-1.29v-2c0-.51.26-1,1.41-1h.13c4.22,0,7.81-1.51,12.69-6.1,5.26-5.24,5.27-9.2,7.19-9.2h.51c1.28,0,1.79,1.16,1.79,3l0,12.42,7.68,0c1.28,0,1.66.52,1.66,1.29v1.79c0,.77-.52,1.28-1.67,1.27Z"/><path class="cls-1" d="M621.68,91.93c-6.52,0-11.24-4.77-11.23-10.28A7.4,7.4,0,0,1,617.9,74c5.76,0,6.5,8.72,11,8.73,4,0,6.67-4.46,9-11.11l.13-.38-19.84-42c-3.31-7.3-4.33-7.43-6.89-8.21-1.15-.39-1.66-.9-1.66-1.54s.52-1.15,1.54-1.15c1.67,0,8.19.28,14.47.3s11.52-.22,13.31-.21c.89,0,1.53.38,1.66,1.15s-.52,1.15-1.67,1.53-1.54,2.18-.91,4l8.51,23.45,7.87-20.71c1-3.71-.37-5.64-4.2-6.67-1.16-.39-1.79-.39-1.79-1.16a1.81,1.81,0,0,1,1.79-1.53c1.67,0,2.18.26,8.45.28s6.79-.24,8.45-.23c1,0,1.66.39,1.66,1.16s-.51,1.15-1.67,1.53c-4.48,1.26-6.66,3.69-9,10.21L641.58,75C636.54,88.77,628.47,92,621.68,91.93Z"/><path class="cls-1" d="M119,14.65c-15.88,0-28.07,12.08-28.12,27.31s12.08,27.3,28,27.35S147,57.23,147.09,42.13,134.75,14.7,119,14.65ZM135.85,39l-3.5,1.67a15.6,15.6,0,0,0-8.88,13.93l0,3.88a.78.78,0,0,1-1.49.33l-1.67-3.5a15.62,15.62,0,0,0-13.93-8.88l-3.88,0a.78.78,0,0,1-.33-1.48l3.5-1.68a15.6,15.6,0,0,0,8.88-13.93l0-3.88a.78.78,0,0,1,1.49-.33l1.67,3.5a15.6,15.6,0,0,0,13.93,8.88l3.88,0A.78.78,0,0,1,135.85,39Z"/><path class="cls-1" d="M76.93,1.47l41.48.12a.7.7,0,0,1,.7.71V5a.71.71,0,0,1-.62.7c-4.54.59-23.75-.94-34.9,25.61L83.4,17.46,87.78,3.69Z"/><path class="cls-1" d="M419.8,41a.28.28,0,0,0,.17.5l9.23,0,16.12,0c1.16,0,1.67-.51,1.67-1.28C447,25.61,438.87,16,424.79,16c-16.25,0-28.06,11.18-28.11,27.82-.05,14.21,9.9,26.91,26.28,27,11.78,0,20.77-7.88,22.44-11.07.77-1.66-.76-2.69-1.66-2.18A19.27,19.27,0,0,1,433,60.39c-6.78,0-14.7-7.09-16.46-18.87l-.37-4.35V36.4c0-9,3.51-16.12,7-16.11S428,25,427.94,31.7V32h0a8.47,8.47,0,0,1-5.11,7.76Z"/><path class="cls-1" d="M42.28,23.68c-2.26,7.34-4.88,15.9-7,23-3.8-15.24-9-37.15-9.23-39.32C25.72,5.41,26,4.39,27.39,4c1.15-.25,1.67-.89,1.67-1.53s-.64-1.15-1.66-1.16c-1.67,0-6.53.24-12.8.22S3.2,1.25,1.54,1.25C.64,1.24,0,1.63,0,2.39S.51,3.68,1.66,3.93c2.81.78,3.57,3.6,4.71,8.08.38,1.28,8.87,32.16,13.05,46.64l1.52,5.89c.88,3.46,2.29,4.36,5.87,4.37,1.67,0,2.32-.12,3.46-.12,2.3,0,3.45.14,5.25.14,2.3,0,3.58-1.26,4.23-3.57.55-2.72,3.72-15.78,6.89-28.43a3.9,3.9,0,0,0,0-1.92l-3-11.3A.7.7,0,0,0,42.28,23.68Z"/><path class="cls-1" d="M94.6,1.52c-1.66,0-2.56.25-8.83.23s-7.17-.27-8.84-.28c-1,0-1.66.38-1.66,1.15s.51,1.28,1.66,1.54c4,1.16,5,2.7,4.33,5-.38,1.15-6.47,24.56-10.35,39.53-3.29-14.48-6.8-37.53-7.69-41.12-.51-2.05-.12-3.07,1.29-3.45,1.15-.25,1.67-.89,1.67-1.53s-.64-1.15-1.66-1.16c-1.67,0-6.53.24-12.8.22s-11.27-.29-13.06-.29c-.9,0-1.54.38-1.54,1.14S37.63,3.79,38.78,4c2.69.78,3.57,3.6,4.84,8.08l1,4L48.3,30.31l7,31.9c1.13,5.51,2.54,6.79,7,6.8,1.53,0,3.71-.11,5.5-.11,2.18,0,2.44.14,3.59.14,1.41,0,3.07-1,3.85-4.08C77,57.41,87.39,16.35,89.07,9.06c.78-2.81,2.32-4,5.52-4.85,1.15-.25,1.67-.89,1.67-1.53S95.62,1.53,94.6,1.52Z"/></g></g></svg>