<svg xmlns="http://www.w3.org/2000/svg" viewBox="0 0 157.37 67.59"><defs><style>.cls-1{fill:#d569b0;}</style></defs><g id="Layer_2" data-name="Layer 2"><g id="Layer_1-2" data-name="Layer 1"><path class="cls-1" d="M42.35,22.31c-2.25,7.35-4.84,15.92-6.89,23C31.62,30.08,26.37,8.19,26.11,6,25.73,4.1,26,3.07,27.39,2.69c1.16-.26,1.67-.9,1.67-1.54S28.42,0,27.39,0c-1.66,0-6.52.26-12.8.26S3.2,0,1.54,0C.64,0,0,.38,0,1.15S.51,2.43,1.66,2.69c2.82.77,3.59,3.58,4.74,8.06.38,1.28,9,32.13,13.18,46.6l1.54,5.88c.9,3.46,2.31,4.36,5.89,4.36,1.66,0,2.56-.13,3.46-.13,2.3,0,3.45.13,5.24.13,2.31,0,3.59-1.28,4.23-3.59.54-2.72,3.67-15.79,6.8-28.45a3.78,3.78,0,0,0,0-1.92l-3-11.29A.7.7,0,0,0,42.35,22.31Z"/><path class="cls-1" d="M94.11.29c-1.66,0-2.07,0-8.35,0S78.6,0,76.93,0c-1,0-1.66.38-1.66,1.15s.51,1.28,1.66,1.54c4,1.15,5,2.69,4.35,5C80.9,8.83,74.88,32.26,71,47.23c-3.32-14.46-6.91-37.5-7.8-41.09-.52-2-.13-3.07,1.28-3.45,1.15-.26,1.66-.9,1.66-1.54S65.54,0,64.52,0C62.85,0,58,.26,51.71.26S40.45,0,38.66,0c-.9,0-1.54.38-1.54,1.15s.51,1.28,1.67,1.54c2.68.77,3.58,3.58,4.86,8.06l1,4,3.72,14.21,7,31.87c1.15,5.51,2.56,6.79,7,6.79,1.53,0,3.71-.13,5.5-.13,2.18,0,2.43.13,3.59.13,1.4,0,3.07-1,3.84-4.1,1.79-7.55,12-48.64,13.69-55.94a7.2,7.2,0,0,1,.84-2,3.06,3.06,0,0,1,.53-.71,4.3,4.3,0,0,1,.9-.54,6,6,0,0,1,4.12-.42l.24.06A4,4,0,0,1,97,4.62,1.7,1.7,0,0,1,97.72,6a2.8,2.8,0,0,0,0,.29V62c0,1.8-.77,2.44-2.56,2.82-1.15.39-1.67.9-1.67,1.67s.64,1.15,1.54,1.15c1.79,0,6.53-.26,12.8-.26h14c26.88,0,35.59-7.94,35.59-18,0-7.29-6.4-13.57-19.07-16.38,6.78-3.2,10.62-8.32,10.62-14.72C148.92,7.81,138.81.26,121.78.26h-14ZM117.94,9c0-2.94.9-4,3.2-4h.26c6.14,0,11.26,5,11.26,13.19S127.8,31,121.78,31.23h-3.84Zm4.74,53.51h-1.54c-2.3,0-3.2-.9-3.2-3.84V36h4.74c7.94,0,14.46,4.35,14.46,13.31S130.62,62.47,122.68,62.47Z"/></g></g></svg>