<svg width="16" height="20" viewBox="0 0 16 20" fill="none" xmlns="http://www.w3.org/2000/svg">
<path d="M4.82857 0.691406L4.57143 1.25H1.14286C0.510714 1.25 0 1.80859 0 2.5C0 3.19141 0.510714 3.75 1.14286 3.75H14.8571C15.4893 3.75 16 3.19141 16 2.5C16 1.80859 15.4893 1.25 14.8571 1.25H11.4286L11.1714 0.691406C10.9786 0.265625 10.5821 0 10.15 0H5.85C5.41786 0 5.02143 0.265625 4.82857 0.691406ZM14.8571 5H1.14286L1.9 18.2422C1.95714 19.2305 2.70714 20 3.61071 20H12.3893C13.2929 20 14.0429 19.2305 14.1 18.2422L14.8571 5Z" fill="white"/>
</svg>
